<?xml version="1.0" standalone="no"?>
<!DOCTYPE svg PUBLIC "-//W3C//DTD SVG 1.1//EN" "http://www.w3.org/Graphics/SVG/1.1/DTD/svg11.dtd" >
<svg xmlns="http://www.w3.org/2000/svg" xmlns:xlink="http://www.w3.org/1999/xlink" version="1.1">
<metadata></metadata>
<defs>
<font id="montserrat_alternatesbold" horiz-adv-x="1413" >
<font-face units-per-em="2048" ascent="1638" descent="-410" />
<missing-glyph horiz-adv-x="579" />
<glyph unicode="&#xfb01;" horiz-adv-x="1533" d="M147 0v1126q0 189 111.5 299.5t314.5 110.5q159 0 244 -59l-84 -232q-55 39 -129 39q-145 0 -145 -160v-47h282v-246h-274v-831h-320zM1026 1434q0 76 55.5 127t143.5 51t143 -49t55 -123q0 -80 -55 -132.5t-143 -52.5t-143.5 51.5t-55.5 127.5zM1065 0v1102h319v-1102 h-319z" />
<glyph unicode="&#xfb02;" horiz-adv-x="1466" d="M16 831v246h170q9 214 144.5 336.5t371.5 122.5q249 0 380.5 -128.5t131.5 -356.5v-873q0 -72 36 -109.5t102 -37.5q46 0 92 20l14 -248q-82 -26 -168 -26q-187 0 -291 99t-104 282v913q0 104 -50.5 157.5t-144.5 53.5q-92 0 -142.5 -52t-51.5 -153h274v-246h-274v-831 h-320v831h-170z" />
<glyph horiz-adv-x="0" />
<glyph horiz-adv-x="682" />
<glyph horiz-adv-x="0" />
<glyph horiz-adv-x="0" />
<glyph unicode="&#xd;" horiz-adv-x="579" />
<glyph unicode=" "  horiz-adv-x="579" />
<glyph unicode="&#x09;" horiz-adv-x="579" />
<glyph unicode="&#xa0;" horiz-adv-x="579" />
<glyph unicode="!" horiz-adv-x="591" d="M100 170q0 78 55.5 130t141.5 52t141.5 -52t55.5 -130t-56 -132t-141 -54t-141 54t-56 132zM106 1434h381l-63 -936h-254z" />
<glyph unicode="&#x22;" horiz-adv-x="894" d="M100 1434h273l-23 -582h-229zM522 1434h273l-23 -582h-229z" />
<glyph unicode="#" horiz-adv-x="1474" d="M41 328v223h295l43 332h-268v223h295l40 328h230l-41 -328h301l41 328h229l-41 -328h267l2 -223h-295l-41 -332h266v-223h-293l-41 -328h-231l41 328h-301l-41 -328h-230l41 328h-268zM565 551h301l43 332h-301z" />
<glyph unicode="$" horiz-adv-x="1306" d="M57 141l113 250q77 -57 182 -96t215 -49v342q-58 14 -98.5 25.5t-95 31.5t-92 41t-77 53.5t-63.5 70t-39.5 89.5t-15.5 113q0 171 123.5 292t357.5 148v227h205v-223q250 -20 416 -125l-103 -252q-156 89 -313 107v-348q57 -13 98.5 -24.5t94.5 -31t90.5 -40.5t76.5 -53 t63 -69t39 -88.5t15 -111.5q0 -168 -122.5 -288t-354.5 -148v-230h-205v223q-151 9 -288 53t-222 111zM416 1028q0 -51 38.5 -83t112.5 -56v291q-151 -35 -151 -152zM772 254q74 17 111 53.5t37 87.5t-38 84t-110 58v-283z" />
<glyph unicode="%" horiz-adv-x="1796" d="M55 1055q0 180 99 287.5t258 107.5q158 0 256 -107t98 -288t-98 -288.5t-256 -107.5t-257.5 108t-99.5 288zM262 1055q0 -111 41 -169.5t109 -58.5q70 0 109.5 57.5t39.5 170.5q0 112 -39.5 169.5t-109.5 57.5q-68 0 -109 -58t-41 -169zM287 0l979 1434h243l-979 -1434 h-243zM1030 379q0 180 98.5 287.5t255.5 107.5q159 0 258 -107.5t99 -287.5t-99 -287.5t-258 -107.5q-157 0 -255.5 107.5t-98.5 287.5zM1235 379q0 -112 40.5 -169.5t108.5 -57.5q69 0 109.5 58t40.5 169t-40.5 169t-109.5 58q-68 0 -108.5 -57.5t-40.5 -169.5z" />
<glyph unicode="&#x26;" horiz-adv-x="1490" d="M74 369q0 134 74.5 234.5t240.5 193.5q-77 81 -112 153.5t-35 149.5q0 157 122 254.5t324 97.5q187 0 299.5 -89.5t112.5 -240.5q0 -110 -67 -196t-214 -166l262 -244q48 98 72 223l256 -80q-42 -190 -131 -325l168 -156l-174 -203l-172 160q-205 -160 -479 -160 q-237 0 -392 111.5t-155 282.5zM387 403q0 -79 69.5 -128.5t186.5 -49.5q149 0 268 84l-346 324q-97 -56 -137.5 -109.5t-40.5 -120.5zM532 1104q0 -42 23 -80t88 -102q104 56 145 99.5t41 94.5q0 54 -37 86.5t-104 32.5q-72 0 -114 -36.5t-42 -94.5z" />
<glyph unicode="'" horiz-adv-x="471" d="M100 1434h273l-23 -582h-229z" />
<glyph unicode="(" horiz-adv-x="731" d="M150 561q0 282 66 528.5t190 430.5h305q-248 -438 -248 -959q0 -262 59.5 -496.5t188.5 -461.5h-305q-124 187 -190 432t-66 526z" />
<glyph unicode=")" horiz-adv-x="733" d="M20 -397q130 227 190 461t60 497q0 523 -250 959h306q126 -183 192 -429.5t66 -529.5t-66 -527.5t-192 -430.5h-306z" />
<glyph unicode="*" horiz-adv-x="888" d="M27 993l223 121l-223 123l98 168l225 -135l-2 250h193l-4 -250l225 135l100 -168l-223 -123l223 -121l-100 -168l-225 133l4 -247h-193l2 250l-225 -136z" />
<glyph unicode="+" horiz-adv-x="1226" d="M127 592v250h354v348h264v-348h357v-250h-357v-348h-264v348h-354z" />
<glyph unicode="," horiz-adv-x="536" d="M72 184q0 88 56 142.5t142 54.5q87 0 142 -55t55 -142q0 -42 -10.5 -82t-44.5 -122l-117 -295h-203l90 325q-52 20 -81 66t-29 108z" />
<glyph unicode="-" horiz-adv-x="790" d="M106 449v256h580v-256h-580z" />
<glyph unicode="." horiz-adv-x="536" d="M70 184q0 88 56.5 142.5t141.5 54.5t142 -54.5t57 -142.5q0 -87 -57.5 -143.5t-141.5 -56.5t-141 56.5t-57 143.5z" />
<glyph unicode="/" horiz-adv-x="802" d="M-68 -205l676 1929h285l-676 -1929h-285z" />
<glyph unicode="0" horiz-adv-x="1390" d="M80 717q0 174 46.5 315t128.5 233.5t194.5 142.5t244.5 50q133 0 245.5 -50t194.5 -142.5t128.5 -233.5t46.5 -315t-46.5 -315t-128.5 -234t-194.5 -143t-245.5 -50q-132 0 -244.5 50t-194.5 143t-128.5 234t-46.5 315zM416 717q0 -235 74.5 -348t203.5 -113 q131 0 206 113t75 348t-75 348t-206 113q-129 0 -203.5 -113t-74.5 -348z" />
<glyph unicode="1" horiz-adv-x="802" d="M14 1167v267h619v-1434h-332v1167h-287z" />
<glyph unicode="2" horiz-adv-x="1208" d="M2 1192q85 124 232.5 195t336.5 71q241 0 387 -115t146 -309q0 -116 -49.5 -219t-190.5 -233l-329 -312h616v-270h-1083v215l553 522q88 84 118.5 144t30.5 120q0 86 -58 132.5t-171 46.5q-192 0 -297 -144z" />
<glyph unicode="3" horiz-adv-x="1212" d="M-2 129l129 254q82 -61 189.5 -95t220.5 -34q125 0 196.5 48.5t71.5 135.5q0 176 -268 176h-152v220l295 333h-610v267h1003v-215l-323 -369q189 -30 289 -140t100 -272q0 -93 -36.5 -175t-107 -147t-186.5 -103t-264 -38q-152 0 -298 40.5t-249 113.5z" />
<glyph unicode="4" horiz-adv-x="1411" d="M63 301v223l676 910h348l-626 -863h385v269h313v-269h234v-270h-234v-301h-323v301h-773z" />
<glyph unicode="5" horiz-adv-x="1218" d="M20 129l132 254q82 -62 188.5 -95.5t218.5 -33.5q125 0 196.5 49.5t71.5 136.5q0 92 -74.5 139.5t-258.5 47.5h-367l74 807h874v-267h-598l-22 -272h116q155 0 270.5 -33t185 -94t103 -140t33.5 -177q0 -77 -22 -147t-70 -130.5t-117 -104.5t-168 -69t-219 -25 q-151 0 -297.5 40.5t-249.5 113.5z" />
<glyph unicode="6" horiz-adv-x="1304" d="M80 686q0 183 53.5 329.5t150 243t231 148t296.5 51.5q243 0 399 -98l-123 -244q-109 72 -268 72q-183 0 -289.5 -106.5t-113.5 -309.5q127 127 354 127q211 0 352.5 -123.5t141.5 -322.5q0 -143 -72.5 -253t-195.5 -167.5t-275 -57.5q-300 0 -470.5 184t-170.5 527z M451 436q0 -95 67 -154t184 -59q107 0 173.5 58t66.5 155q0 98 -66.5 156.5t-177.5 58.5q-109 0 -178 -60.5t-69 -154.5z" />
<glyph unicode="7" horiz-adv-x="1269" d="M53 930v504h1149v-215l-532 -1219h-361l514 1163h-475v-233h-295z" />
<glyph unicode="8" horiz-adv-x="1351" d="M72 416q0 227 217 338q-166 103 -166 295q0 187 152 298t399 111q250 0 402.5 -111t152.5 -298q0 -190 -168 -295q219 -110 219 -338q0 -202 -165.5 -321.5t-440.5 -119.5q-273 0 -437.5 119.5t-164.5 321.5zM408 426q0 -95 71.5 -151t194.5 -56q124 0 197 56t73 151 t-72.5 150t-197.5 55q-123 0 -194.5 -55t-71.5 -150zM453 1034q0 -81 59.5 -128.5t161.5 -47.5q103 0 164 47.5t61 128.5q0 84 -61.5 132t-163.5 48q-101 0 -161 -48t-60 -132z" />
<glyph unicode="9" horiz-adv-x="1304" d="M41 981q0 143 72.5 252.5t195.5 167t275 57.5q302 0 471.5 -183.5t169.5 -526.5q0 -365 -199.5 -569t-531.5 -204q-114 0 -218.5 26t-179.5 73l123 243q104 -71 268 -71q182 0 289.5 107.5t114.5 310.5q-129 -129 -356 -129q-211 0 -352.5 123.5t-141.5 322.5zM365 997 q0 -98 66.5 -156.5t176.5 -58.5q108 0 177 60.5t69 154.5t-67 153.5t-183 59.5q-107 0 -173 -58t-66 -155z" />
<glyph unicode=":" horiz-adv-x="536" d="M70 184q0 88 56.5 142.5t141.5 54.5t142 -54.5t57 -142.5q0 -87 -57.5 -143.5t-141.5 -56.5t-141 56.5t-57 143.5zM70 920q0 88 56.5 142t141.5 54t142 -54t57 -142q0 -87 -57.5 -144t-141.5 -57t-141 57t-57 144z" />
<glyph unicode=";" horiz-adv-x="536" d="M70 920q0 88 56.5 142t141.5 54t142 -54t57 -142q0 -87 -57.5 -144t-141.5 -57t-141 57t-57 144zM72 184q0 88 56 142.5t142 54.5q87 0 142 -55t55 -142q0 -42 -10.5 -82t-44.5 -122l-117 -295h-203l90 325q-52 20 -81 66t-29 108z" />
<glyph unicode="&#x3c;" horiz-adv-x="1226" d="M127 584v266l975 371v-254l-682 -250l682 -248v-256z" />
<glyph unicode="=" horiz-adv-x="1226" d="M127 338v250h975v-250h-975zM127 846v250h975v-250h-975z" />
<glyph unicode="&#x3e;" horiz-adv-x="1226" d="M127 213v256l682 248l-682 250v254l975 -371v-266z" />
<glyph unicode="?" horiz-adv-x="1206" d="M-2 1184q86 130 232.5 202t347.5 72q235 0 377.5 -100.5t142.5 -278.5q0 -77 -25.5 -142t-63.5 -106.5t-83 -83.5t-83 -75t-63.5 -78.5t-25.5 -95.5h-310q0 58 17.5 109.5t46 90t62.5 72.5t68 64t62.5 59t46 63t17.5 70q0 75 -60.5 119.5t-160.5 44.5q-190 0 -297 -152z M403 170q0 78 55.5 130t141.5 52t141.5 -52t55.5 -130t-56 -132t-141 -54t-141 54t-56 132z" />
<glyph unicode="@" horiz-adv-x="2119" d="M80 520q0 199 71.5 371.5t199.5 296.5t314 195t406 71q212 0 393.5 -67.5t307.5 -186t197 -283.5t71 -356q0 -271 -114 -423t-306 -152q-105 0 -177 45.5t-104 132.5q-111 -178 -350 -178q-201 0 -337 145t-136 373q0 227 135.5 371.5t337.5 144.5t316 -135v121h278v-664 q0 -131 98 -131q73 0 112.5 86t39.5 260q0 206 -95 366t-268.5 248.5t-398.5 88.5q-169 0 -311.5 -55.5t-241 -153.5t-154 -235t-55.5 -296q0 -162 54.5 -300t151.5 -236t238.5 -153.5t309.5 -55.5q219 0 403 90l66 -189q-92 -46 -218.5 -72t-250.5 -26q-218 0 -402.5 71.5 t-311.5 196.5t-198 299t-71 375zM799 504q0 -130 70 -206.5t184 -76.5q113 0 184.5 75.5t71.5 207.5q0 130 -71.5 204t-184.5 74q-114 0 -184 -74.5t-70 -203.5z" />
<glyph unicode="A" horiz-adv-x="1630" d="M158 0v784q0 321 178 497.5t479 176.5t479.5 -176.5t178.5 -497.5v-784h-332v344h-656v-344h-327zM485 610h656v205q0 178 -88 269.5t-240 91.5q-154 0 -241 -91t-87 -270v-205z" />
<glyph unicode="B" horiz-adv-x="1566" d="M170 0v1434h700q263 0 403 -100.5t140 -272.5q0 -106 -50.5 -187.5t-139.5 -128.5q123 -39 192.5 -130.5t69.5 -223.5q0 -188 -147 -289.5t-427 -101.5h-741zM500 250h387q264 0 264 176q0 178 -264 178h-387v-354zM500 846h329q122 0 186 43t64 127q0 168 -250 168h-329 v-338z" />
<glyph unicode="C" horiz-adv-x="1501" d="M80 717q0 213 101 382.5t278.5 264t398.5 94.5q186 0 337.5 -65.5t252.5 -188.5l-213 -196q-145 168 -361 168q-201 0 -329.5 -128.5t-128.5 -330.5t128.5 -330.5t329.5 -128.5q217 0 361 170l213 -197q-101 -125 -253 -190.5t-339 -65.5q-164 0 -308 55.5t-247 153 t-162 236t-59 297.5z" />
<glyph unicode="D" horiz-adv-x="1691" d="M170 0v1434h651q233 0 412.5 -88t279 -251.5t99.5 -377.5t-99.5 -377.5t-279 -251.5t-412.5 -88h-651zM502 272h303q215 0 343 120t128 325t-128 324.5t-343 119.5h-303v-889z" />
<glyph unicode="E" horiz-adv-x="1366" d="M80 403q0 115 64 202.5t173 131.5q-84 44 -130 122t-46 175q0 86 40 161.5t117 134.5t202.5 93.5t285.5 34.5q140 0 272.5 -27t231.5 -75l-92 -254q-189 88 -399 88q-160 0 -241 -48.5t-81 -129.5q0 -156 219 -156h391v-262h-411q-124 0 -192 -43t-68 -125 q0 -85 87 -133.5t267 -48.5q128 0 254.5 34t214.5 95l102 -250q-103 -69 -258 -108.5t-327 -39.5q-324 0 -500 118t-176 310z" />
<glyph unicode="F" horiz-adv-x="1259" d="M158 0v874q0 277 173 430.5t484 153.5q259 0 420 -100l-102 -262q-124 80 -295 80q-172 0 -260.5 -75t-88.5 -224v-89h590v-266h-590v-522h-331z" />
<glyph unicode="G" horiz-adv-x="1579" d="M80 705q0 164 59 304.5t163 239t250.5 154t315.5 55.5q189 0 342.5 -63.5t257.5 -184.5l-213 -196q-152 162 -370 162q-210 0 -339.5 -128.5t-129.5 -340.5q0 -110 35 -198.5t95 -143.5t136.5 -84t163.5 -29q175 0 293 98v389h303v-739h-250v86q-149 -111 -385 -111 q-148 0 -279 48.5t-231 139t-158.5 230.5t-58.5 312z" />
<glyph unicode="H" horiz-adv-x="1654" d="M170 0v1434h332v-566h651v566h332v-1434h-332v588h-651v-588h-332z" />
<glyph unicode="I" horiz-adv-x="989" d="M80 0v266h250v901h-250v267h829v-267h-247v-901h247v-266h-829z" />
<glyph unicode="J" horiz-adv-x="1105" d="M-33 -20l180 221q119 -158 265 -158q204 0 204 238v886h-501v267h833v-1135q0 -264 -131.5 -396t-386.5 -132q-145 0 -265 54t-198 155z" />
<glyph unicode="K" horiz-adv-x="1515" d="M170 0v1434h330v-670l635 670h368l-594 -639l629 -795h-387l-459 563l-192 -201v-362h-330z" />
<glyph unicode="L" horiz-adv-x="1236" d="M170 0v1434h332v-1164h719v-270h-1051z" />
<glyph unicode="M" horiz-adv-x="2500" d="M170 0v1434h322v-177q65 96 173.5 148.5t249.5 52.5q148 0 258 -54.5t170 -156.5q73 102 193.5 156.5t269.5 54.5q254 0 395.5 -148t141.5 -429v-881h-332v870q0 151 -79 228.5t-208 77.5q-142 0 -225.5 -81t-83.5 -245v-850h-332v870q0 152 -73.5 229t-200.5 77 q-139 0 -223 -81.5t-84 -244.5v-850h-332z" />
<glyph unicode="N" horiz-adv-x="1630" d="M170 0v1434h322v-174q146 198 438 198q257 0 400 -160.5t143 -457.5v-840h-332v829q0 173 -80.5 260t-224.5 87q-151 0 -242.5 -93.5t-91.5 -275.5v-807h-332z" />
<glyph unicode="O" horiz-adv-x="1728" d="M80 717q0 210 101 379.5t280.5 265.5t402.5 96t402.5 -95.5t281 -265t101.5 -380.5q0 -158 -59.5 -296t-163.5 -236t-249.5 -154t-312.5 -56q-223 0 -402.5 96t-280.5 266t-101 380zM416 717q0 -202 127 -330.5t321 -128.5t321.5 128.5t127.5 330.5t-127.5 330.5 t-321.5 128.5t-321 -128.5t-127 -330.5z" />
<glyph unicode="P" horiz-adv-x="1499" d="M170 0v1434h621q288 0 455 -140t167 -381q0 -239 -167.5 -378.5t-454.5 -139.5h-289v-395h-332zM502 666h270q150 0 227.5 64t77.5 183q0 120 -77.5 185t-227.5 65h-270v-497z" />
<glyph unicode="Q" horiz-adv-x="1728" d="M80 717q0 210 101 379.5t280.5 265.5t402.5 96t402.5 -95.5t281 -265t101.5 -380.5q0 -278 -171.5 -477t-447.5 -250v-266h-334v266q-275 51 -445.5 250.5t-170.5 476.5zM416 717q0 -161 79 -276t214 -160v294h307v-294q138 43 217.5 158t79.5 278q0 202 -127.5 330.5 t-321.5 128.5t-321 -128.5t-127 -330.5z" />
<glyph unicode="R" horiz-adv-x="1505" d="M170 0v1434h621q288 0 455 -140t167 -381q0 -159 -77 -275t-218 -177l322 -461h-357l-276 399h-16h-289v-399h-332zM502 664h270q150 0 227.5 65t77.5 184q0 120 -77.5 185t-227.5 65h-270v-499z" />
<glyph unicode="S" horiz-adv-x="1306" d="M57 141l113 250q93 -67 219.5 -108t253.5 -41q141 0 209 41.5t68 111.5q0 43 -28.5 74t-77 51t-111 35.5t-131.5 32t-138 36t-131.5 51.5t-111 75t-77 110t-28.5 152q0 93 37.5 173t110.5 141.5t190 96.5t266 35q138 0 269 -32.5t229 -94.5l-103 -252q-198 113 -397 113 q-140 0 -206 -45.5t-66 -118.5q0 -42 28.5 -73t76.5 -50t110.5 -34.5t132 -31.5t138.5 -35.5t131.5 -51t110.5 -73.5t76.5 -108.5t28.5 -150.5q0 -92 -38 -171.5t-111.5 -141t-191.5 -97t-267 -35.5q-169 0 -328.5 46t-255.5 120z" />
<glyph unicode="T" horiz-adv-x="1306" d="M-23 1280q298 178 674 178q381 0 676 -178l-113 -248q-184 107 -395 137v-1169h-332v1169q-211 -30 -397 -137z" />
<glyph unicode="U" horiz-adv-x="1622" d="M158 594v840h331v-830q0 -172 81 -259t221 -87q149 0 239 93.5t90 275.5v807h332v-1434h-322v174q-147 -199 -434 -199q-253 0 -395.5 161t-142.5 458z" />
<glyph unicode="V" horiz-adv-x="1527" d="M-18 1434h358l436 -1024l443 1024h329l-620 -1434h-328z" />
<glyph unicode="W" horiz-adv-x="2459" d="M158 588v846h331v-836q0 -175 72 -257.5t213 -82.5q289 0 289 340v836h332v-836q0 -340 291 -340q282 0 282 340v836h334v-846q0 -298 -162 -455.5t-459 -157.5q-147 0 -262.5 43.5t-189.5 120.5q-161 -164 -451 -164q-297 0 -458.5 157.5t-161.5 455.5z" />
<glyph unicode="X" horiz-adv-x="1462" d="M6 0l531 729l-504 705h377l329 -465l324 465h358l-499 -693l534 -741h-383l-346 498l-340 -498h-381z" />
<glyph unicode="Y" horiz-adv-x="1607" d="M147 944v490h332v-469q0 -167 80 -253.5t225 -86.5q154 0 244 89.5t90 272.5v447h332v-985q0 -323 -180 -496.5t-498 -173.5q-184 0 -334.5 50.5t-257.5 141.5l129 246q196 -158 455 -158q179 0 266.5 91t87.5 282v88q-142 -176 -405 -176q-271 0 -418.5 155t-147.5 445z " />
<glyph unicode="Z" horiz-adv-x="1394" d="M88 0v193l340 413h-227v248h430l258 313h-787v267h1209v-191l-324 -395h209v-246h-410l-276 -336h831v-266h-1253z" />
<glyph unicode="[" horiz-adv-x="753" d="M170 -397v1917h555v-250h-236v-1417h236v-250h-555z" />
<glyph unicode="\" horiz-adv-x="802" d="M-88 1724h285l675 -1929h-284z" />
<glyph unicode="]" horiz-adv-x="753" d="M31 -147h233v1417h-233v250h553v-1917h-553v250z" />
<glyph unicode="^" horiz-adv-x="1228" d="M117 289l370 856h256l369 -856h-246l-252 604l-252 -604h-245z" />
<glyph unicode="_" horiz-adv-x="1024" d="M0 0h1024v-184h-1024v184z" />
<glyph unicode="`" horiz-adv-x="1228" d="M180 1538h344l277 -295h-250z" />
<glyph unicode="a" d="M66 551q0 127 42.5 234t116 179.5t174.5 113t217 40.5q212 0 330 -133v117h320v-1102h-305v127q-119 -143 -345 -143q-116 0 -217 40.5t-174.5 113t-116 179.5t-42.5 234zM389 551q0 -139 80 -222t203 -83q121 0 200.5 83t79.5 222t-79.5 222t-200.5 83q-123 0 -203 -83 t-80 -222z" />
<glyph unicode="b" d="M147 0v1520h320v-535q121 133 332 133q115 0 216 -40.5t174.5 -113t116 -179.5t42.5 -234t-42.5 -234t-116 -179.5t-174.5 -113t-216 -40.5q-227 0 -346 143v-127h-306zM463 551q0 -140 78.5 -222.5t201.5 -82.5t202 82.5t79 222.5t-79 222.5t-202 82.5t-201.5 -82.5 t-78.5 -222.5z" />
<glyph unicode="c" horiz-adv-x="1210" d="M66 551q0 164 78.5 293.5t218.5 201.5t317 72q174 0 304 -73t190 -207l-248 -133q-86 151 -248 151q-125 0 -207 -82t-82 -223t82 -223t207 -82q164 0 248 151l248 -135q-60 -132 -190 -205t-304 -73q-177 0 -317 72t-218.5 201.5t-78.5 293.5z" />
<glyph unicode="d" horiz-adv-x="1417" d="M70 551q0 169 73 299.5t198 199t280 68.5q211 0 329 -133v535h320v-1520h-305v127q-119 -143 -344 -143q-155 0 -280 68.5t-198 199t-73 299.5zM393 551q0 -139 80 -222t203 -83q121 0 200.5 83t79.5 222t-79.5 222t-200.5 83q-123 0 -203 -83t-80 -222z" />
<glyph unicode="e" horiz-adv-x="1292" d="M66 551q0 247 167 407t422 160q117 0 220 -38t181 -108t123 -176t46 -235l-815 -158q70 -163 292 -163q165 0 277 106l170 -184q-155 -178 -455 -178q-187 0 -330.5 73t-220.5 202t-77 292zM379 584l536 104q-24 86 -93 137.5t-167 51.5q-122 0 -197 -77.5t-79 -215.5z " />
<glyph unicode="f" horiz-adv-x="753" d="M147 0v1126q0 189 111.5 299.5t314.5 110.5q159 0 244 -59l-84 -232q-55 39 -129 39q-145 0 -145 -160v-47h282v-246h-274v-831h-320z" />
<glyph unicode="g" horiz-adv-x="1433" d="M66 586q0 157 74 279.5t199 187.5t277 65q241 0 365 -157v141h303v-918q0 -598 -618 -598q-160 0 -303 39t-238 113l127 229q70 -57 176.5 -91t212.5 -34q167 0 245.5 75t78.5 226v47q-125 -137 -349 -137q-152 0 -277 65t-199 188t-74 280zM389 586q0 -121 82 -196 t209 -75t208 75t81 196t-81 195.5t-208 74.5t-209 -75t-82 -195z" />
<glyph unicode="h" horiz-adv-x="1415" d="M147 0v1520h320v-533q131 131 350 131q99 0 181 -29.5t144.5 -87.5t97 -152.5t34.5 -217.5v-631h-320v582q0 131 -57.5 195.5t-165.5 64.5q-121 0 -192.5 -75t-71.5 -222v-545h-320z" />
<glyph unicode="i" horiz-adv-x="616" d="M109 1434q0 76 55 127t143 51t143.5 -49t55.5 -123q0 -80 -55.5 -132.5t-143.5 -52.5t-143 51.5t-55 127.5zM147 0v1102h320v-1102h-320z" />
<glyph unicode="j" horiz-adv-x="628" d="M-190 -352l86 231q55 -39 135 -39q62 0 96.5 40t34.5 120v1102h319v-1100q0 -193 -109 -304.5t-306 -111.5q-168 0 -256 62zM123 1434q0 76 55.5 127t143.5 51t143 -49t55 -123q0 -80 -55 -132.5t-143 -52.5t-143.5 51.5t-55.5 127.5z" />
<glyph unicode="k" horiz-adv-x="1351" d="M147 0v1520h320v-861l467 443h381l-459 -467l500 -635h-387l-348 432l-154 -151v-281h-320z" />
<glyph unicode="l" horiz-adv-x="718" d="M147 365v1155h320v-1137q0 -70 35.5 -107.5t101.5 -37.5q54 0 90 20l15 -248q-79 -26 -166 -26q-187 0 -291.5 99t-104.5 282z" />
<glyph unicode="m" horiz-adv-x="2148" d="M147 0v1102h306v-127q125 143 346 143q118 0 211 -45.5t151 -134.5q66 85 170 132.5t228 47.5q206 0 328 -122t122 -365v-631h-319v582q0 130 -55 195t-154 65q-112 0 -178 -73t-66 -216v-553h-319v582q0 260 -209 260q-110 0 -176 -73t-66 -216v-553h-320z" />
<glyph unicode="n" horiz-adv-x="1415" d="M147 0v1102h306v-129q133 145 364 145q99 0 181 -29.5t144.5 -87.5t97 -152.5t34.5 -217.5v-631h-320v582q0 131 -57.5 195.5t-165.5 64.5q-121 0 -192.5 -75t-71.5 -222v-545h-320z" />
<glyph unicode="o" horiz-adv-x="1341" d="M66 551q0 248 171.5 407.5t434.5 159.5t433.5 -159.5t170.5 -407.5t-170.5 -407.5t-433.5 -159.5t-434.5 159.5t-171.5 407.5zM389 551q0 -139 80 -222t203 -83t201.5 82.5t78.5 222.5t-78.5 222.5t-201.5 82.5t-203 -83t-80 -222z" />
<glyph unicode="p" d="M147 -397v1499h306v-127q119 143 346 143q115 0 216 -40.5t174.5 -113t116 -179.5t42.5 -234t-42.5 -234t-116 -179.5t-174.5 -113t-216 -40.5q-211 0 -332 133v-514h-320zM463 551q0 -140 78.5 -222.5t201.5 -82.5t202 82.5t79 222.5t-79 222.5t-202 82.5t-201.5 -82.5 t-78.5 -222.5z" />
<glyph unicode="q" d="M66 551q0 127 42.5 234t116 179.5t174.5 113t217 40.5q226 0 345 -143v127h305v-1499h-320v514q-118 -133 -330 -133q-116 0 -217 40.5t-174.5 113t-116 179.5t-42.5 234zM389 551q0 -139 80 -222t203 -83q121 0 200.5 83t79.5 222t-79.5 222t-200.5 83q-123 0 -203 -83 t-80 -222z" />
<glyph unicode="r" horiz-adv-x="882" d="M147 0v1102h306v-146q119 162 378 162v-295q-54 4 -71 4q-137 0 -215 -77t-78 -230v-520h-320z" />
<glyph unicode="s" horiz-adv-x="1087" d="M41 102l106 230q75 -48 179 -77.5t204 -29.5q203 0 203 101q0 29 -22.5 48t-61 29.5t-88.5 18t-105.5 16t-110.5 20.5t-105 35.5t-88.5 56.5t-61 87.5t-22.5 124.5q0 160 136 258t374 98q116 0 231 -25.5t192 -70.5l-106 -227q-147 82 -317 82q-102 0 -153.5 -28.5 t-51.5 -74.5q0 -38 36.5 -60.5t95.5 -33.5t129.5 -21t141.5 -29.5t130 -51t95.5 -94t36.5 -150.5q0 -157 -138.5 -253.5t-381.5 -96.5q-137 0 -268 33t-209 85z" />
<glyph unicode="t" horiz-adv-x="843" d="M141 379v967h320v-269h272v-246h-272v-448q0 -70 35 -107.5t100 -37.5q75 0 131 41l84 -226q-97 -69 -258 -69q-199 0 -305.5 100t-106.5 295z" />
<glyph unicode="u" horiz-adv-x="1406" d="M141 479v623h320v-576q0 -266 223 -266q115 0 184.5 75t69.5 222v545h319v-1102h-303v131q-63 -71 -151.5 -109t-190.5 -38q-216 0 -343.5 124.5t-127.5 370.5z" />
<glyph unicode="v" horiz-adv-x="1224" d="M-16 1102h329l305 -750l316 750h307l-465 -1102h-330z" />
<glyph unicode="w" horiz-adv-x="2029" d="M141 494v608h320v-584q0 -137 46.5 -201.5t147.5 -64.5q102 0 151.5 65t49.5 201v584h320v-584q0 -136 49 -201t151 -65q101 0 148 64.5t47 201.5v584h319v-608q0 -244 -132.5 -377t-379.5 -133q-246 0 -362 155q-117 -155 -365 -155t-379 133t-131 377z" />
<glyph unicode="x" horiz-adv-x="1218" d="M8 0l424 555l-409 547h358l233 -322l240 322h340l-410 -539l426 -563h-362l-242 338l-250 -338h-348z" />
<glyph unicode="y" horiz-adv-x="1406" d="M131 -262l127 229q69 -57 169.5 -90t203.5 -33q159 0 233 74t74 225v37q-127 -127 -326 -127q-216 0 -343.5 124.5t-127.5 371.5v553h320v-506q0 -268 223 -268q115 0 184.5 75t69.5 222v477h319v-918q0 -598 -600 -598q-155 0 -293.5 39t-232.5 113z" />
<glyph unicode="z" horiz-adv-x="1132" d="M82 0v193l219 258h-149v213h329l162 192h-547v246h951v-193l-209 -247h155v-213h-336l-172 -203h580v-246h-983z" />
<glyph unicode="{" horiz-adv-x="800" d="M106 436v250h68q90 0 90 96v371q0 178 98 272.5t289 94.5h119v-250h-37q-74 0 -111.5 -39.5t-37.5 -112.5v-327q0 -103 -33 -155.5t-105 -74.5q73 -22 105.5 -74t32.5 -155v-328q0 -73 37.5 -112t111.5 -39h37v-250h-119q-191 0 -289 94t-98 272v371q0 96 -90 96h-68z " />
<glyph unicode="|" horiz-adv-x="632" d="M170 -397v1917h293v-1917h-293z" />
<glyph unicode="}" horiz-adv-x="800" d="M31 -147h37q74 0 111.5 39t37.5 112v328q0 103 32.5 155t104.5 74q-72 22 -104.5 74.5t-32.5 155.5v327q0 73 -37.5 112.5t-111.5 39.5h-37v250h119q191 0 289 -94.5t98 -272.5v-371q0 -96 90 -96h67v-250h-67q-90 0 -90 -96v-371q0 -178 -98 -272t-289 -94h-119v250z " />
<glyph unicode="~" horiz-adv-x="1226" d="M102 532q3 189 87 290.5t221 101.5q54 0 104 -18.5t87 -45t70 -52.5t66 -44.5t62 -18.5q57 0 90.5 43t36.5 117h200q-4 -189 -87.5 -290t-219.5 -101q-53 0 -103 18.5t-87.5 44.5t-70.5 52t-66.5 44.5t-63.5 18.5q-55 0 -89.5 -43t-37.5 -117h-199z" />
<glyph unicode="&#xa1;" horiz-adv-x="591" d="M100 932q0 78 56 132t141 54t141 -54t56 -132q0 -79 -55.5 -131.5t-141.5 -52.5t-141.5 52.5t-55.5 131.5zM106 -315l64 919h254l63 -919h-381z" />
<glyph unicode="&#xa2;" horiz-adv-x="1210" d="M66 551q0 219 136 371t357 186v240h205v-234q145 -17 251.5 -88t158.5 -188l-248 -133q-59 106 -162 139v-586q105 33 162 139l248 -135q-52 -115 -159 -186t-251 -88v-234h-205v240q-221 34 -357 186t-136 371zM389 551q0 -103 46 -176.5t124 -106.5v566 q-78 -33 -124 -106.5t-46 -176.5z" />
<glyph unicode="&#xa3;" horiz-adv-x="1368" d="M61 0v266h205v352h-205v199h205v53q0 275 175.5 431.5t490.5 156.5q243 0 411 -94l-100 -262q-123 74 -307 74q-164 0 -250 -75.5t-86 -223.5v-60h492v-199h-492v-352h703v-266h-1242z" />
<glyph unicode="&#xa4;" horiz-adv-x="1433" d="M51 170l209 209q-82 124 -82 278q0 147 76 271l-203 202l178 187l207 -205q131 78 281 78q151 0 278 -78l207 205l178 -187l-200 -200q75 -128 75 -273q0 -150 -81 -280l206 -207l-178 -186l-217 215q-125 -72 -268 -72t-271 72l-217 -215zM430 657q0 -116 83.5 -197 t203.5 -81q119 0 204 81.5t85 196.5t-85 197t-204 82q-120 0 -203.5 -81.5t-83.5 -197.5z" />
<glyph unicode="&#xa5;" horiz-adv-x="1507" d="M-29 1434h355l438 -641l442 641h332l-543 -797h308v-170h-383v-113h383v-170h-383v-184h-332v184h-383v170h383v113h-383v170h309z" />
<glyph unicode="&#xa6;" horiz-adv-x="632" d="M170 319h293v-716h-293v716zM170 803v717h293v-717h-293z" />
<glyph unicode="&#xa7;" horiz-adv-x="1069" d="M43 -100l94 225q70 -51 170.5 -82t194.5 -31q88 0 137 32.5t49 88.5q0 43 -35 70.5t-90.5 43t-123 29t-134.5 35t-122.5 54t-90.5 94t-35 147.5q0 166 131 264q-88 78 -88 213q0 165 135 266t383 101q101 0 220.5 -26t189.5 -72l-92 -224q-143 89 -336 89 q-217 0 -217 -121q0 -35 27 -59.5t71 -38t100.5 -28t115 -27.5t115 -39.5t100.5 -61t71 -94.5t27 -138q0 -152 -131 -250q92 -79 92 -217q0 -161 -127 -262.5t-346 -101.5q-126 0 -253.5 34t-201.5 87zM334 629q0 -23 7.5 -41t26.5 -32.5t35 -24t50 -19.5t54 -15.5t64 -15 t64 -14.5q98 45 98 135q0 22 -7.5 40t-26.5 32.5t-34.5 24t-50.5 20t-53 15.5t-64 15.5t-63 14.5q-46 -21 -73 -56t-27 -79z" />
<glyph unicode="&#xa8;" horiz-adv-x="1228" d="M264 1395q0 62 41.5 101.5t102.5 39.5t101 -39.5t40 -101.5t-40 -102t-101 -40t-102.5 40t-41.5 102zM680 1395q0 62 40 101.5t101 39.5t102.5 -39.5t41.5 -101.5t-41.5 -102t-102.5 -40t-101 40t-40 102z" />
<glyph unicode="&#xa9;" horiz-adv-x="1607" d="M80 717q0 149 56 282.5t151.5 230.5t230.5 153.5t287 56.5t286 -55.5t229.5 -151t150.5 -228.5t55 -284t-56.5 -285.5t-152.5 -231.5t-231 -153.5t-285 -56.5t-284 56.5t-230 153.5t-151.5 230.5t-55.5 282.5zM221 717q0 -164 74.5 -299t208 -213t297.5 -78t298.5 78.5 t210.5 214.5t76 301t-74 299t-207.5 210.5t-299.5 76.5t-300 -78t-209 -213t-75 -299zM391 717q0 181 122.5 297t313.5 116q122 0 214 -52t137 -142l-185 -109q-56 97 -168 97q-82 0 -138 -56.5t-56 -150.5t56 -150.5t138 -56.5q113 0 168 96l185 -106q-45 -92 -137 -144.5 t-214 -52.5q-191 0 -313.5 116.5t-122.5 297.5z" />
<glyph unicode="&#xaa;" horiz-adv-x="843" d="M57 1059q0 93 74 144.5t227 51.5h160q-3 121 -158 121q-54 0 -109 -17t-93 -46l-76 139q58 39 142 61.5t167 22.5q348 0 348 -295v-373h-204v80q-57 -90 -216 -90q-126 0 -194 56t-68 145zM266 1067q0 -34 29.5 -53t81.5 -19q102 0 141 76v68h-127q-125 0 -125 -72z" />
<glyph unicode="&#xab;" horiz-adv-x="1163" d="M74 551l288 401h287l-280 -401l280 -399h-287zM537 551l288 401h287l-281 -401l281 -399h-287z" />
<glyph unicode="&#xac;" horiz-adv-x="1226" d="M127 594v248h975v-606h-264v358h-711z" />
<glyph unicode="&#xad;" horiz-adv-x="790" d="M106 449v256h580v-256h-580z" />
<glyph unicode="&#xae;" horiz-adv-x="1607" d="M80 717q0 149 56 282.5t151.5 230.5t230.5 153.5t287 56.5t286 -55.5t229.5 -151t150.5 -228.5t55 -284t-56.5 -285.5t-152.5 -231.5t-231 -153.5t-285 -56.5t-284 56.5t-230 153.5t-151.5 230.5t-55.5 282.5zM221 717q0 -164 74.5 -299t208 -213t297.5 -78t298.5 78.5 t210.5 214.5t76 301t-74 299t-207.5 210.5t-299.5 76.5t-300 -78t-209 -213t-75 -299zM489 319v795h347q162 0 254 -76.5t92 -206.5q0 -175 -150 -245l174 -267h-213l-149 230h-8h-134v-230h-213zM700 709h121q72 0 112 32t40 90q0 60 -40 92.5t-112 32.5h-121v-247z" />
<glyph unicode="&#xaf;" horiz-adv-x="1228" d="M236 1300v181h757v-181h-757z" />
<glyph unicode="&#xb0;" horiz-adv-x="856" d="M68 1100q0 148 104.5 250t255.5 102q149 0 253.5 -102t104.5 -250q0 -147 -104 -248.5t-254 -101.5q-151 0 -255.5 101.5t-104.5 248.5zM238 1100q0 -83 54 -138t136 -55q81 0 135.5 55.5t54.5 137.5q0 83 -54 137.5t-136 54.5t-136 -54.5t-54 -137.5z" />
<glyph unicode="&#xb1;" horiz-adv-x="1226" d="M127 0v250h975v-250h-975zM127 762v242h354v335h264v-335h357v-242h-357v-336h-264v336h-354z" />
<glyph unicode="&#xb2;" horiz-adv-x="880" d="M37 1368q52 78 146.5 123t226.5 45q165 0 260.5 -71t95.5 -187q0 -66 -33.5 -124t-128.5 -140l-196 -172h391v-172h-715v137l354 307q58 50 79.5 83t21.5 65q0 42 -37.5 69t-110.5 27q-128 0 -190 -88z" />
<glyph unicode="&#xb3;" horiz-adv-x="880" d="M37 750l82 163q57 -38 135 -60t156 -22q87 0 131.5 27t44.5 74q0 96 -162 96h-121v139l186 183h-415v170h692v-138l-207 -202q123 -18 188.5 -84t65.5 -164q0 -116 -103 -197.5t-296 -81.5q-109 0 -212.5 27t-164.5 70z" />
<glyph unicode="&#xb4;" horiz-adv-x="1228" d="M428 1243l277 295h344l-371 -295h-250z" />
<glyph unicode="&#xb5;" d="M147 -397v1499h320v-576q0 -135 58 -200.5t165 -65.5q117 0 186.5 75t69.5 222v545h320v-1102h-289v135q-49 -78 -125.5 -114.5t-163.5 -36.5q-135 0 -221 71v-452h-320z" />
<glyph unicode="&#xb6;" horiz-adv-x="1404" d="M29 1128q0 179 134 285.5t357 106.5h715v-1725h-260v1493h-248v-1493h-260v942q-193 3 -315.5 109t-122.5 282z" />
<glyph unicode="&#xb7;" horiz-adv-x="618" d="M111 578q0 90 55.5 144t142.5 54q89 0 144 -54t55 -144t-55.5 -145.5t-143.5 -55.5q-87 0 -142.5 55.5t-55.5 145.5z" />
<glyph unicode="&#xb8;" horiz-adv-x="1228" d="M356 -432l50 137q67 -31 133 -31q106 0 106 66q0 59 -100 59h-70l53 217h170l-28 -118q89 -10 133.5 -56.5t44.5 -113.5q0 -93 -82 -148t-219 -55q-116 0 -191 43z" />
<glyph unicode="&#xb9;" horiz-adv-x="880" d="M150 670v170h210v510h-192v170h422v-680h184v-170h-624z" />
<glyph unicode="&#xba;" horiz-adv-x="874" d="M49 1198q0 147 110 242.5t279 95.5t278 -95t109 -243q0 -149 -109 -244.5t-278 -95.5t-279 95.5t-110 244.5zM266 1198q0 -77 48 -123.5t124 -46.5q75 0 122.5 46.5t47.5 123.5t-47.5 122.5t-122.5 45.5q-76 0 -124 -45.5t-48 -122.5z" />
<glyph unicode="&#xbb;" horiz-adv-x="1163" d="M51 152l281 399l-281 401h287l289 -401l-289 -399h-287zM514 152l281 399l-281 401h287l289 -401l-289 -399h-287z" />
<glyph unicode="&#xbc;" horiz-adv-x="2138" d="M150 584v170h210v510h-192v170h422v-680h184v-170h-624zM459 0l979 1434h243l-979 -1434h-243zM1282 172v143l387 535h244l-367 -504h219v143h197v-143h137v-174h-137v-172h-219v172h-461z" />
<glyph unicode="&#xbd;" horiz-adv-x="2138" d="M150 584v170h210v510h-192v170h422v-680h184v-170h-624zM459 0l979 1434h243l-979 -1434h-243zM1294 698q52 78 146.5 123t226.5 45q165 0 260.5 -71t95.5 -187q0 -66 -33 -124t-128 -140l-197 -172h391v-172h-715v137l355 307q58 49 79 82.5t21 65.5q0 42 -37 69 t-110 27q-129 0 -191 -88z" />
<glyph unicode="&#xbe;" horiz-adv-x="2138" d="M37 664l82 163q57 -38 135 -60t156 -22q87 0 131.5 27t44.5 74q0 96 -162 96h-121v139l186 183h-415v170h692v-138l-207 -202q123 -18 188.5 -84t65.5 -164q0 -116 -103 -197.5t-296 -81.5q-109 0 -212.5 27t-164.5 70zM459 0l979 1434h243l-979 -1434h-243zM1282 172 v143l387 535h244l-367 -504h219v143h197v-143h137v-174h-137v-172h-219v172h-461z" />
<glyph unicode="&#xbf;" horiz-adv-x="1206" d="M106 35q0 65 19.5 120.5t50 95.5t67 75t73.5 66t67 62t49 69t19 81h309q0 -78 -33 -144t-79.5 -111t-93 -86t-79.5 -87t-33 -94q0 -67 60.5 -109.5t159.5 -42.5q196 0 296 152l248 -145q-182 -275 -579 -275q-235 0 -378 99t-143 274zM410 932q0 78 54.5 132t139.5 54 q86 0 141.5 -54t55.5 -132q0 -79 -55 -131.5t-142 -52.5q-85 0 -139.5 52.5t-54.5 131.5z" />
<glyph unicode="&#xc0;" horiz-adv-x="1630" d="M158 0v784q0 321 178 497.5t479 176.5t479.5 -176.5t178.5 -497.5v-784h-332v344h-656v-344h-327zM381 1845h344l276 -295h-249zM485 610h656v205q0 178 -88 269.5t-240 91.5q-154 0 -241 -91t-87 -270v-205z" />
<glyph unicode="&#xc1;" horiz-adv-x="1630" d="M158 0v784q0 321 178 497.5t479 176.5t479.5 -176.5t178.5 -497.5v-784h-332v344h-656v-344h-327zM485 610h656v205q0 178 -88 269.5t-240 91.5q-154 0 -241 -91t-87 -270v-205zM629 1550l276 295h344l-370 -295h-250z" />
<glyph unicode="&#xc2;" horiz-adv-x="1630" d="M158 0v784q0 321 178 497.5t479 176.5t479.5 -176.5t178.5 -497.5v-784h-332v344h-656v-344h-327zM403 1550l271 295h282l271 -295h-234l-178 156l-178 -156h-234zM485 610h656v205q0 178 -88 269.5t-240 91.5q-154 0 -241 -91t-87 -270v-205z" />
<glyph unicode="&#xc3;" horiz-adv-x="1630" d="M158 0v784q0 321 178 497.5t479 176.5t479.5 -176.5t178.5 -497.5v-784h-332v344h-656v-344h-327zM422 1559q3 137 68 218t172 81q48 0 93.5 -20.5t74.5 -45.5t61.5 -45.5t56.5 -20.5q42 0 69 30t30 81h161q-3 -133 -67.5 -213t-171.5 -80q-48 0 -94 20t-75 44.5 t-61.5 44.5t-56.5 20q-42 0 -68.5 -30t-29.5 -84h-162zM485 610h656v205q0 178 -88 269.5t-240 91.5q-154 0 -241 -91t-87 -270v-205z" />
<glyph unicode="&#xc4;" horiz-adv-x="1630" d="M158 0v784q0 321 178 497.5t479 176.5t479.5 -176.5t178.5 -497.5v-784h-332v344h-656v-344h-327zM465 1702q0 62 41 101.5t102 39.5t101.5 -39.5t40.5 -101.5t-40.5 -101.5t-101.5 -39.5t-102 39.5t-41 101.5zM485 610h656v205q0 178 -88 269.5t-240 91.5 q-154 0 -241 -91t-87 -270v-205zM881 1702q0 62 40 101.5t101 39.5t102 -39.5t41 -101.5t-41 -101.5t-102 -39.5t-101 39.5t-40 101.5z" />
<glyph unicode="&#xc5;" horiz-adv-x="1630" d="M158 0v784q0 321 178 497.5t479 176.5t479.5 -176.5t178.5 -497.5v-784h-332v344h-656v-344h-327zM485 610h656v205q0 178 -88 269.5t-240 91.5q-154 0 -241 -91t-87 -270v-205zM561 1792q0 103 72.5 175.5t179.5 72.5q108 0 182 -72.5t74 -175.5q0 -105 -74 -176.5 t-182 -71.5q-107 0 -179.5 71.5t-72.5 176.5zM690 1792q0 -54 35 -89.5t88 -35.5q54 0 89.5 35.5t35.5 89.5t-35.5 89.5t-89.5 35.5q-51 0 -87 -35.5t-36 -89.5z" />
<glyph unicode="&#xc6;" horiz-adv-x="2224" d="M143 0v788q0 312 166 479t477 167h1334v-265h-756v-315h670v-252h-670v-338h784v-264h-1112v362h-559v-362h-334zM477 625h559v526h-221q-172 0 -255 -91.5t-83 -279.5v-155z" />
<glyph unicode="&#xc7;" horiz-adv-x="1501" d="M80 717q0 213 101 382.5t278.5 264t398.5 94.5q186 0 337.5 -65.5t252.5 -188.5l-213 -196q-145 168 -361 168q-201 0 -329.5 -128.5t-128.5 -330.5t128.5 -330.5t329.5 -128.5q217 0 361 170l213 -197q-96 -120 -239.5 -185t-321.5 -71l-19 -77q89 -10 134 -56.5 t45 -113.5q0 -93 -82.5 -148t-219.5 -55q-115 0 -190 43l49 137q67 -31 133 -31q107 0 107 66q0 59 -101 59h-69l45 187q-283 43 -461 243.5t-178 487.5z" />
<glyph unicode="&#xc8;" horiz-adv-x="1366" d="M80 403q0 115 64 202.5t173 131.5q-84 44 -130 122t-46 175q0 86 40 161.5t117 134.5t202.5 93.5t285.5 34.5q140 0 272.5 -27t231.5 -75l-92 -254q-189 88 -399 88q-160 0 -241 -48.5t-81 -129.5q0 -156 219 -156h391v-262h-411q-124 0 -192 -43t-68 -125 q0 -85 87 -133.5t267 -48.5q128 0 254.5 34t214.5 95l102 -250q-103 -69 -258 -108.5t-327 -39.5q-324 0 -500 118t-176 310zM307 1845h344l277 -295h-250z" />
<glyph unicode="&#xc9;" horiz-adv-x="1366" d="M80 403q0 115 64 202.5t173 131.5q-84 44 -130 122t-46 175q0 86 40 161.5t117 134.5t202.5 93.5t285.5 34.5q140 0 272.5 -27t231.5 -75l-92 -254q-189 88 -399 88q-160 0 -241 -48.5t-81 -129.5q0 -156 219 -156h391v-262h-411q-124 0 -192 -43t-68 -125 q0 -85 87 -133.5t267 -48.5q128 0 254.5 34t214.5 95l102 -250q-103 -69 -258 -108.5t-327 -39.5q-324 0 -500 118t-176 310zM555 1550l276 295h345l-371 -295h-250z" />
<glyph unicode="&#xca;" horiz-adv-x="1366" d="M80 403q0 115 64 202.5t173 131.5q-84 44 -130 122t-46 175q0 86 40 161.5t117 134.5t202.5 93.5t285.5 34.5q140 0 272.5 -27t231.5 -75l-92 -254q-189 88 -399 88q-160 0 -241 -48.5t-81 -129.5q0 -156 219 -156h391v-262h-411q-124 0 -192 -43t-68 -125 q0 -85 87 -133.5t267 -48.5q128 0 254.5 34t214.5 95l102 -250q-103 -69 -258 -108.5t-327 -39.5q-324 0 -500 118t-176 310zM330 1550l270 295h283l270 -295h-233l-179 156l-178 -156h-233z" />
<glyph unicode="&#xcb;" horiz-adv-x="1366" d="M80 403q0 115 64 202.5t173 131.5q-84 44 -130 122t-46 175q0 86 40 161.5t117 134.5t202.5 93.5t285.5 34.5q140 0 272.5 -27t231.5 -75l-92 -254q-189 88 -399 88q-160 0 -241 -48.5t-81 -129.5q0 -156 219 -156h391v-262h-411q-124 0 -192 -43t-68 -125 q0 -85 87 -133.5t267 -48.5q128 0 254.5 34t214.5 95l102 -250q-103 -69 -258 -108.5t-327 -39.5q-324 0 -500 118t-176 310zM391 1702q0 62 41.5 101.5t102.5 39.5t101 -39.5t40 -101.5t-40 -101.5t-101 -39.5t-102.5 39.5t-41.5 101.5zM807 1702q0 62 40 101.5t101 39.5 t102.5 -39.5t41.5 -101.5t-41.5 -101.5t-102.5 -39.5t-101 39.5t-40 101.5z" />
<glyph unicode="&#xcc;" horiz-adv-x="989" d="M61 1845h345l276 -295h-250zM80 0v266h250v901h-250v267h829v-267h-247v-901h247v-266h-829z" />
<glyph unicode="&#xcd;" horiz-adv-x="989" d="M80 0v266h250v901h-250v267h829v-267h-247v-901h247v-266h-829zM309 1550l277 295h344l-371 -295h-250z" />
<glyph unicode="&#xce;" horiz-adv-x="989" d="M80 0v266h250v901h-250v267h829v-267h-247v-901h247v-266h-829zM84 1550l270 295h283l270 -295h-233l-178 156l-179 -156h-233z" />
<glyph unicode="&#xcf;" horiz-adv-x="989" d="M80 0v266h250v901h-250v267h829v-267h-247v-901h247v-266h-829zM145 1702q0 62 41.5 101.5t102.5 39.5t101 -39.5t40 -101.5t-40 -101.5t-101 -39.5t-102.5 39.5t-41.5 101.5zM561 1702q0 62 40 101.5t101 39.5t102.5 -39.5t41.5 -101.5t-41.5 -101.5t-102.5 -39.5 t-101 39.5t-40 101.5z" />
<glyph unicode="&#xd0;" horiz-adv-x="1718" d="M2 618v222h195v594h651q233 0 412 -88t278.5 -251.5t99.5 -377.5t-99.5 -377.5t-278.5 -251.5t-412 -88h-651v618h-195zM528 272h303q215 0 343.5 120t128.5 325q0 204 -128.5 324t-343.5 120h-303v-321h359v-222h-359v-346z" />
<glyph unicode="&#xd1;" horiz-adv-x="1630" d="M170 0v1434h322v-174q146 198 438 198q257 0 400 -160.5t143 -457.5v-840h-332v829q0 173 -80.5 260t-224.5 87q-151 0 -242.5 -93.5t-91.5 -275.5v-807h-332zM428 1559q3 137 68 218t172 81q48 0 93.5 -20.5t74.5 -45.5t61.5 -45.5t56.5 -20.5q42 0 69 30t30 81h161 q-3 -133 -67.5 -213t-171.5 -80q-48 0 -94 20t-75 44.5t-61.5 44.5t-56.5 20q-42 0 -68.5 -30t-29.5 -84h-162z" />
<glyph unicode="&#xd2;" horiz-adv-x="1728" d="M80 717q0 210 101 379.5t280.5 265.5t402.5 96t402.5 -95.5t281 -265t101.5 -380.5q0 -158 -59.5 -296t-163.5 -236t-249.5 -154t-312.5 -56q-223 0 -402.5 96t-280.5 266t-101 380zM416 717q0 -202 127 -330.5t321 -128.5t321.5 128.5t127.5 330.5t-127.5 330.5 t-321.5 128.5t-321 -128.5t-127 -330.5zM430 1845h344l277 -295h-250z" />
<glyph unicode="&#xd3;" horiz-adv-x="1728" d="M80 717q0 210 101 379.5t280.5 265.5t402.5 96t402.5 -95.5t281 -265t101.5 -380.5q0 -158 -59.5 -296t-163.5 -236t-249.5 -154t-312.5 -56q-223 0 -402.5 96t-280.5 266t-101 380zM416 717q0 -202 127 -330.5t321 -128.5t321.5 128.5t127.5 330.5t-127.5 330.5 t-321.5 128.5t-321 -128.5t-127 -330.5zM678 1550l276 295h344l-370 -295h-250z" />
<glyph unicode="&#xd4;" horiz-adv-x="1728" d="M80 717q0 210 101 379.5t280.5 265.5t402.5 96t402.5 -95.5t281 -265t101.5 -380.5q0 -158 -59.5 -296t-163.5 -236t-249.5 -154t-312.5 -56q-223 0 -402.5 96t-280.5 266t-101 380zM416 717q0 -202 127 -330.5t321 -128.5t321.5 128.5t127.5 330.5t-127.5 330.5 t-321.5 128.5t-321 -128.5t-127 -330.5zM453 1550l270 295h283l270 -295h-234l-178 156l-178 -156h-233z" />
<glyph unicode="&#xd5;" horiz-adv-x="1728" d="M80 717q0 210 101 379.5t280.5 265.5t402.5 96t402.5 -95.5t281 -265t101.5 -380.5q0 -158 -59.5 -296t-163.5 -236t-249.5 -154t-312.5 -56q-223 0 -402.5 96t-280.5 266t-101 380zM416 717q0 -202 127 -330.5t321 -128.5t321.5 128.5t127.5 330.5t-127.5 330.5 t-321.5 128.5t-321 -128.5t-127 -330.5zM471 1559q3 137 68 218t172 81q48 0 93.5 -20.5t74.5 -45.5t61.5 -45.5t56.5 -20.5q42 0 69 30t30 81h161q-3 -133 -67.5 -213t-171.5 -80q-48 0 -94 20t-75 44.5t-61.5 44.5t-56.5 20q-42 0 -68.5 -30t-29.5 -84h-162z" />
<glyph unicode="&#xd6;" horiz-adv-x="1728" d="M80 717q0 210 101 379.5t280.5 265.5t402.5 96t402.5 -95.5t281 -265t101.5 -380.5q0 -158 -59.5 -296t-163.5 -236t-249.5 -154t-312.5 -56q-223 0 -402.5 96t-280.5 266t-101 380zM416 717q0 -202 127 -330.5t321 -128.5t321.5 128.5t127.5 330.5t-127.5 330.5 t-321.5 128.5t-321 -128.5t-127 -330.5zM514 1702q0 62 41 101.5t102 39.5t101.5 -39.5t40.5 -101.5t-40.5 -101.5t-101.5 -39.5t-102 39.5t-41 101.5zM930 1702q0 62 40 101.5t101 39.5t102 -39.5t41 -101.5t-41 -101.5t-102 -39.5t-101 39.5t-40 101.5z" />
<glyph unicode="&#xd7;" horiz-adv-x="1226" d="M184 461l254 256l-254 256l172 180l258 -260l258 260l172 -180l-253 -256l253 -256l-172 -180l-258 260l-258 -260z" />
<glyph unicode="&#xd8;" horiz-adv-x="1728" d="M80 717q0 210 101 379.5t280.5 265.5t402.5 96q193 0 367 -78l139 197h215l-205 -289q127 -102 198 -249t71 -322q0 -158 -59.5 -296t-163.5 -236t-249.5 -154t-312.5 -56q-197 0 -364 78l-140 -196h-215l205 288q-128 101 -199 249t-71 323zM416 717q0 -191 114 -318 l527 738q-89 39 -193 39q-194 0 -321 -128.5t-127 -330.5zM674 297q89 -39 190 -39q194 0 321.5 128.5t127.5 330.5q0 189 -115 317z" />
<glyph unicode="&#xd9;" horiz-adv-x="1622" d="M158 594v840h331v-830q0 -172 81 -259t221 -87q149 0 239 93.5t90 275.5v807h332v-1434h-322v174q-147 -199 -434 -199q-253 0 -395.5 161t-142.5 458zM367 1845h344l276 -295h-250z" />
<glyph unicode="&#xda;" horiz-adv-x="1622" d="M158 594v840h331v-830q0 -172 81 -259t221 -87q149 0 239 93.5t90 275.5v807h332v-1434h-322v174q-147 -199 -434 -199q-253 0 -395.5 161t-142.5 458zM614 1550l277 295h344l-371 -295h-250z" />
<glyph unicode="&#xdb;" horiz-adv-x="1622" d="M158 594v840h331v-830q0 -172 81 -259t221 -87q149 0 239 93.5t90 275.5v807h332v-1434h-322v174q-147 -199 -434 -199q-253 0 -395.5 161t-142.5 458zM389 1550l270 295h283l270 -295h-233l-178 156l-178 -156h-234z" />
<glyph unicode="&#xdc;" horiz-adv-x="1622" d="M158 594v840h331v-830q0 -172 81 -259t221 -87q149 0 239 93.5t90 275.5v807h332v-1434h-322v174q-147 -199 -434 -199q-253 0 -395.5 161t-142.5 458zM451 1702q0 62 41 101.5t102 39.5t101 -39.5t40 -101.5t-40 -101.5t-101 -39.5t-102 39.5t-41 101.5zM866 1702 q0 62 40.5 101.5t101.5 39.5t102 -39.5t41 -101.5t-41 -101.5t-102 -39.5t-101.5 39.5t-40.5 101.5z" />
<glyph unicode="&#xdd;" horiz-adv-x="1607" d="M147 944v490h332v-469q0 -167 80 -253.5t225 -86.5q154 0 244 89.5t90 272.5v447h332v-985q0 -323 -180 -496.5t-498 -173.5q-184 0 -334.5 50.5t-257.5 141.5l129 246q196 -158 455 -158q179 0 266.5 91t87.5 282v88q-142 -176 -405 -176q-271 0 -418.5 155t-147.5 445z M612 1550l277 295h344l-371 -295h-250z" />
<glyph unicode="&#xde;" horiz-adv-x="1499" d="M170 0v1434h332v-158h289q288 0 455 -139.5t167 -380.5t-167 -380.5t-455 -139.5h-289v-236h-332zM502 506h270q150 0 227.5 65t77.5 185t-77.5 185t-227.5 65h-270v-500z" />
<glyph unicode="&#xdf;" horiz-adv-x="1419" d="M147 0v989q0 132 43.5 237.5t120 172.5t177.5 102t219 35q241 0 381.5 -120.5t140.5 -307.5q0 -186 -156 -305q132 -44 206.5 -140.5t74.5 -238.5q0 -206 -141.5 -323t-374.5 -117q-144 0 -242 32l37 254q77 -24 172 -24q104 0 164.5 48.5t60.5 137.5q0 90 -65.5 138 t-182.5 48h-110v252q115 3 182.5 61t67.5 154q0 87 -57.5 139t-157.5 52q-112 0 -176 -64t-64 -184v-1028h-320z" />
<glyph unicode="&#xe0;" d="M66 551q0 127 42.5 234t116 179.5t174.5 113t217 40.5q212 0 330 -133v117h320v-1102h-305v127q-119 -143 -345 -143q-116 0 -217 40.5t-174.5 113t-116 179.5t-42.5 234zM281 1538h344l276 -295h-250zM389 551q0 -139 80 -222t203 -83q121 0 200.5 83t79.5 222 t-79.5 222t-200.5 83q-123 0 -203 -83t-80 -222z" />
<glyph unicode="&#xe1;" d="M66 551q0 127 42.5 234t116 179.5t174.5 113t217 40.5q212 0 330 -133v117h320v-1102h-305v127q-119 -143 -345 -143q-116 0 -217 40.5t-174.5 113t-116 179.5t-42.5 234zM389 551q0 -139 80 -222t203 -83q121 0 200.5 83t79.5 222t-79.5 222t-200.5 83q-123 0 -203 -83 t-80 -222zM528 1243l277 295h344l-371 -295h-250z" />
<glyph unicode="&#xe2;" d="M66 551q0 127 42.5 234t116 179.5t174.5 113t217 40.5q212 0 330 -133v117h320v-1102h-305v127q-119 -143 -345 -143q-116 0 -217 40.5t-174.5 113t-116 179.5t-42.5 234zM303 1243l270 295h283l270 -295h-233l-178 156l-178 -156h-234zM389 551q0 -139 80 -222t203 -83 q121 0 200.5 83t79.5 222t-79.5 222t-200.5 83q-123 0 -203 -83t-80 -222z" />
<glyph unicode="&#xe3;" d="M66 551q0 127 42.5 234t116 179.5t174.5 113t217 40.5q212 0 330 -133v117h320v-1102h-305v127q-119 -143 -345 -143q-116 0 -217 40.5t-174.5 113t-116 179.5t-42.5 234zM322 1251q3 137 67.5 218t171.5 81q48 0 94 -20.5t75 -45t61.5 -45t56.5 -20.5q41 0 68 30t30 81 h162q-3 -133 -68 -213t-172 -80q-48 0 -93.5 20t-74.5 44.5t-61.5 44.5t-56.5 20q-42 0 -69 -30.5t-30 -84.5h-161zM389 551q0 -139 80 -222t203 -83q121 0 200.5 83t79.5 222t-79.5 222t-200.5 83q-123 0 -203 -83t-80 -222z" />
<glyph unicode="&#xe4;" d="M66 551q0 127 42.5 234t116 179.5t174.5 113t217 40.5q212 0 330 -133v117h320v-1102h-305v127q-119 -143 -345 -143q-116 0 -217 40.5t-174.5 113t-116 179.5t-42.5 234zM365 1395q0 62 41 101.5t102 39.5t101 -39.5t40 -101.5t-40 -102t-101 -40t-102 40t-41 102z M389 551q0 -139 80 -222t203 -83q121 0 200.5 83t79.5 222t-79.5 222t-200.5 83q-123 0 -203 -83t-80 -222zM780 1395q0 62 40.5 101.5t101.5 39.5t102 -39.5t41 -101.5t-41 -102t-102 -40t-101.5 40t-40.5 102z" />
<glyph unicode="&#xe5;" d="M66 551q0 127 42.5 234t116 179.5t174.5 113t217 40.5q212 0 330 -133v117h320v-1102h-305v127q-119 -143 -345 -143q-116 0 -217 40.5t-174.5 113t-116 179.5t-42.5 234zM389 551q0 -139 80 -222t203 -83q121 0 200.5 83t79.5 222t-79.5 222t-200.5 83q-123 0 -203 -83 t-80 -222zM461 1460q0 103 72.5 175.5t179.5 72.5q108 0 182 -72.5t74 -175.5q0 -105 -74 -176.5t-182 -71.5q-107 0 -179.5 71.5t-72.5 176.5zM590 1460q0 -54 35 -89.5t88 -35.5q54 0 89.5 35.5t35.5 89.5t-35.5 89.5t-89.5 35.5q-51 0 -87 -35.5t-36 -89.5z" />
<glyph unicode="&#xe6;" horiz-adv-x="2037" d="M76 330q0 144 116.5 231.5t356.5 87.5h254q0 102 -63 158.5t-189 56.5q-89 0 -174.5 -27.5t-145.5 -74.5l-114 223q89 64 214.5 98.5t258.5 34.5q277 0 405 -155q78 73 184 114t226 41q116 0 218 -38t179 -108t123 -177t47 -236l-819 -158q37 -77 114.5 -119t184.5 -42 q152 0 270 106l172 -184q-158 -178 -450 -178q-144 0 -269 47t-212 145q-125 -192 -424 -192q-215 0 -339 94.5t-124 251.5zM387 336q0 -65 48.5 -101t135.5 -36q108 0 170 57.5t62 155.5v51h-219q-197 0 -197 -127zM1122 586l537 102q-25 86 -93 137.5t-165 51.5 q-121 0 -200 -80t-79 -209v-2z" />
<glyph unicode="&#xe7;" horiz-adv-x="1210" d="M66 551q0 164 78.5 293.5t218.5 201.5t317 72q174 0 304 -73t190 -207l-248 -133q-86 151 -248 151q-125 0 -207 -82t-82 -223t82 -223t207 -82q164 0 248 151l248 -135q-57 -127 -179.5 -199.5t-287.5 -78.5l-21 -86q89 -10 133.5 -56.5t44.5 -113.5q0 -93 -82 -148 t-219 -55q-115 0 -190 43l49 137q67 -31 133 -31q107 0 107 66q0 59 -101 59h-69l49 197q-215 40 -345 190.5t-130 364.5z" />
<glyph unicode="&#xe8;" horiz-adv-x="1292" d="M66 551q0 247 167 407t422 160q117 0 220 -38t181 -108t123 -176t46 -235l-815 -158q70 -163 292 -163q165 0 277 106l170 -184q-155 -178 -455 -178q-187 0 -330.5 73t-220.5 202t-77 292zM215 1538h344l277 -295h-250zM379 584l536 104q-24 86 -93 137.5t-167 51.5 q-122 0 -197 -77.5t-79 -215.5z" />
<glyph unicode="&#xe9;" horiz-adv-x="1292" d="M66 551q0 247 167 407t422 160q117 0 220 -38t181 -108t123 -176t46 -235l-815 -158q70 -163 292 -163q165 0 277 106l170 -184q-155 -178 -455 -178q-187 0 -330.5 73t-220.5 202t-77 292zM379 584l536 104q-24 86 -93 137.5t-167 51.5q-122 0 -197 -77.5t-79 -215.5z M463 1243l276 295h344l-370 -295h-250z" />
<glyph unicode="&#xea;" horiz-adv-x="1292" d="M66 551q0 247 167 407t422 160q117 0 220 -38t181 -108t123 -176t46 -235l-815 -158q70 -163 292 -163q165 0 277 106l170 -184q-155 -178 -455 -178q-187 0 -330.5 73t-220.5 202t-77 292zM238 1243l270 295h283l270 -295h-234l-178 156l-178 -156h-233zM379 584 l536 104q-24 86 -93 137.5t-167 51.5q-122 0 -197 -77.5t-79 -215.5z" />
<glyph unicode="&#xeb;" horiz-adv-x="1292" d="M66 551q0 247 167 407t422 160q117 0 220 -38t181 -108t123 -176t46 -235l-815 -158q70 -163 292 -163q165 0 277 106l170 -184q-155 -178 -455 -178q-187 0 -330.5 73t-220.5 202t-77 292zM299 1395q0 62 41 101.5t102 39.5t101.5 -39.5t40.5 -101.5t-40.5 -102 t-101.5 -40t-102 40t-41 102zM379 584l536 104q-24 86 -93 137.5t-167 51.5q-122 0 -197 -77.5t-79 -215.5zM715 1395q0 62 40 101.5t101 39.5t102 -39.5t41 -101.5t-41 -102t-102 -40t-101 40t-40 102z" />
<glyph unicode="&#xec;" horiz-adv-x="616" d="M-127 1538h344l277 -295h-250zM147 0v1102h320v-1102h-320z" />
<glyph unicode="&#xed;" horiz-adv-x="616" d="M121 1243l276 295h344l-370 -295h-250zM147 0v1102h320v-1102h-320z" />
<glyph unicode="&#xee;" horiz-adv-x="616" d="M-53 1243l223 295h274l224 -295h-228l-133 143l-133 -143h-227zM147 0v1102h320v-1102h-320z" />
<glyph unicode="&#xef;" horiz-adv-x="616" d="M6 1395q0 61 38 100t95 39q58 0 96.5 -39t38.5 -100t-38.5 -100.5t-96.5 -39.5q-57 0 -95 39.5t-38 100.5zM147 0v1102h320v-1102h-320zM340 1395q0 61 38.5 100t96.5 39q57 0 95 -39t38 -100t-38 -100.5t-95 -39.5q-58 0 -96.5 39.5t-38.5 100.5z" />
<glyph unicode="&#xf0;" horiz-adv-x="1345" d="M66 453q0 137 69.5 243t187 161.5t263.5 55.5q234 0 360 -147v4q0 249 -119 377l-518 -199l-65 162l383 147q-64 15 -142 15q-149 0 -276 -43l-39 248q157 41 328 41q284 0 475 -129l184 71l66 -162l-109 -41q164 -209 164 -557q0 -339 -176.5 -532t-483.5 -193 q-238 0 -395 132t-157 346zM391 444q0 -100 70.5 -160.5t181.5 -60.5q118 0 190 63.5t72 157.5q0 96 -72.5 159t-183.5 63q-118 0 -188 -60.5t-70 -161.5z" />
<glyph unicode="&#xf1;" horiz-adv-x="1415" d="M147 0v1102h306v-129q133 145 364 145q99 0 181 -29.5t144.5 -87.5t97 -152.5t34.5 -217.5v-631h-320v582q0 131 -57.5 195.5t-165.5 64.5q-121 0 -192.5 -75t-71.5 -222v-545h-320zM319 1251q3 137 68 218t172 81q48 0 94 -20.5t75 -45t61.5 -45t56.5 -20.5q41 0 68 30 t30 81h162q-3 -133 -68 -213t-172 -80q-48 0 -93.5 20t-74.5 44.5t-61.5 44.5t-56.5 20q-42 0 -69 -30.5t-30 -84.5h-162z" />
<glyph unicode="&#xf2;" horiz-adv-x="1341" d="M66 551q0 248 171.5 407.5t434.5 159.5t433.5 -159.5t170.5 -407.5t-170.5 -407.5t-433.5 -159.5t-434.5 159.5t-171.5 407.5zM233 1538h345l276 -295h-250zM389 551q0 -139 80 -222t203 -83t201.5 82.5t78.5 222.5t-78.5 222.5t-201.5 82.5t-203 -83t-80 -222z" />
<glyph unicode="&#xf3;" horiz-adv-x="1341" d="M66 551q0 248 171.5 407.5t434.5 159.5t433.5 -159.5t170.5 -407.5t-170.5 -407.5t-433.5 -159.5t-434.5 159.5t-171.5 407.5zM389 551q0 -139 80 -222t203 -83t201.5 82.5t78.5 222.5t-78.5 222.5t-201.5 82.5t-203 -83t-80 -222zM481 1243l277 295h344l-371 -295h-250z " />
<glyph unicode="&#xf4;" horiz-adv-x="1341" d="M66 551q0 248 171.5 407.5t434.5 159.5t433.5 -159.5t170.5 -407.5t-170.5 -407.5t-433.5 -159.5t-434.5 159.5t-171.5 407.5zM256 1243l270 295h283l270 -295h-233l-178 156l-179 -156h-233zM389 551q0 -139 80 -222t203 -83t201.5 82.5t78.5 222.5t-78.5 222.5 t-201.5 82.5t-203 -83t-80 -222z" />
<glyph unicode="&#xf5;" horiz-adv-x="1341" d="M66 551q0 248 171.5 407.5t434.5 159.5t433.5 -159.5t170.5 -407.5t-170.5 -407.5t-433.5 -159.5t-434.5 159.5t-171.5 407.5zM274 1251q3 137 68 218t172 81q48 0 94 -20.5t75 -45t61.5 -45t56.5 -20.5q41 0 68 30t30 81h162q-3 -133 -68 -213t-172 -80q-48 0 -93.5 20 t-74.5 44.5t-61.5 44.5t-56.5 20q-42 0 -69 -30.5t-30 -84.5h-162zM389 551q0 -139 80 -222t203 -83t201.5 82.5t78.5 222.5t-78.5 222.5t-201.5 82.5t-203 -83t-80 -222z" />
<glyph unicode="&#xf6;" horiz-adv-x="1341" d="M66 551q0 248 171.5 407.5t434.5 159.5t433.5 -159.5t170.5 -407.5t-170.5 -407.5t-433.5 -159.5t-434.5 159.5t-171.5 407.5zM317 1395q0 62 41.5 101.5t102.5 39.5t101 -39.5t40 -101.5t-40 -102t-101 -40t-102.5 40t-41.5 102zM389 551q0 -139 80 -222t203 -83 t201.5 82.5t78.5 222.5t-78.5 222.5t-201.5 82.5t-203 -83t-80 -222zM733 1395q0 62 40 101.5t101 39.5t102.5 -39.5t41.5 -101.5t-41.5 -102t-102.5 -40t-101 40t-40 102z" />
<glyph unicode="&#xf7;" horiz-adv-x="1226" d="M127 592v250h975v-250h-975zM444 293q0 73 49.5 120.5t120.5 47.5t120.5 -47.5t49.5 -120.5q0 -74 -49.5 -123t-120.5 -49t-120.5 49t-49.5 123zM444 1145q0 74 49 121t121 47t121 -47t49 -121t-49.5 -123t-120.5 -49t-120.5 49t-49.5 123z" />
<glyph unicode="&#xf8;" horiz-adv-x="1341" d="M66 551q0 248 171.5 407.5t434.5 159.5q140 0 258 -47l108 166h160l-151 -231q109 -76 169 -193.5t60 -261.5q0 -248 -170.5 -407.5t-433.5 -159.5q-144 0 -260 49l-117 -178h-158l158 241q-108 76 -168.5 194.5t-60.5 260.5zM389 551q0 -126 68 -207l321 494 q-49 18 -106 18q-123 0 -203 -83t-80 -222zM563 266q47 -20 109 -20q123 0 201.5 82.5t78.5 222.5q0 125 -65 209z" />
<glyph unicode="&#xf9;" horiz-adv-x="1406" d="M141 479v623h320v-576q0 -266 223 -266q115 0 184.5 75t69.5 222v545h319v-1102h-303v131q-63 -71 -151.5 -109t-190.5 -38q-216 0 -343.5 124.5t-127.5 370.5zM264 1538h344l277 -295h-250z" />
<glyph unicode="&#xfa;" horiz-adv-x="1406" d="M141 479v623h320v-576q0 -266 223 -266q115 0 184.5 75t69.5 222v545h319v-1102h-303v131q-63 -71 -151.5 -109t-190.5 -38q-216 0 -343.5 124.5t-127.5 370.5zM512 1243l276 295h345l-371 -295h-250z" />
<glyph unicode="&#xfb;" horiz-adv-x="1406" d="M141 479v623h320v-576q0 -266 223 -266q115 0 184.5 75t69.5 222v545h319v-1102h-303v131q-63 -71 -151.5 -109t-190.5 -38q-216 0 -343.5 124.5t-127.5 370.5zM287 1243l270 295h283l270 -295h-233l-179 156l-178 -156h-233z" />
<glyph unicode="&#xfc;" horiz-adv-x="1406" d="M141 479v623h320v-576q0 -266 223 -266q115 0 184.5 75t69.5 222v545h319v-1102h-303v131q-63 -71 -151.5 -109t-190.5 -38q-216 0 -343.5 124.5t-127.5 370.5zM348 1395q0 62 41.5 101.5t102.5 39.5t101 -39.5t40 -101.5t-40 -102t-101 -40t-102.5 40t-41.5 102z M764 1395q0 62 40 101.5t101 39.5t102.5 -39.5t41.5 -101.5t-41.5 -102t-102.5 -40t-101 40t-40 102z" />
<glyph unicode="&#xfd;" horiz-adv-x="1406" d="M131 -262l127 229q69 -57 169.5 -90t203.5 -33q159 0 233 74t74 225v37q-127 -127 -326 -127q-216 0 -343.5 124.5t-127.5 371.5v553h320v-506q0 -268 223 -268q115 0 184.5 75t69.5 222v477h319v-918q0 -598 -600 -598q-155 0 -293.5 39t-232.5 113zM512 1243l276 295 h345l-371 -295h-250z" />
<glyph unicode="&#xfe;" d="M147 -397v1917h320v-529q118 127 332 127q115 0 216 -40.5t174.5 -113t116 -179.5t42.5 -234t-42.5 -234t-116 -179.5t-174.5 -113t-216 -40.5q-211 0 -332 133v-514h-320zM463 551q0 -140 78.5 -222.5t201.5 -82.5t202 82.5t79 222.5t-79 222.5t-202 82.5t-201.5 -82.5 t-78.5 -222.5z" />
<glyph unicode="&#xff;" horiz-adv-x="1406" d="M131 -262l127 229q69 -57 169.5 -90t203.5 -33q159 0 233 74t74 225v37q-127 -127 -326 -127q-216 0 -343.5 124.5t-127.5 371.5v553h320v-506q0 -268 223 -268q115 0 184.5 75t69.5 222v477h319v-918q0 -598 -600 -598q-155 0 -293.5 39t-232.5 113zM348 1395 q0 62 41.5 101.5t102.5 39.5t101 -39.5t40 -101.5t-40 -102t-101 -40t-102.5 40t-41.5 102zM764 1395q0 62 40 101.5t101 39.5t102.5 -39.5t41.5 -101.5t-41.5 -102t-102.5 -40t-101 40t-40 102z" />
<glyph unicode="&#x152;" horiz-adv-x="2326" d="M80 715q0 215 99.5 379t278.5 252t412 88h1336v-267h-754v-311h666v-258h-666v-332h780v-266h-1362q-233 0 -412 88t-278.5 251t-99.5 376zM416 715q0 -203 128 -323t343 -120h235v889h-235q-215 0 -343 -120t-128 -326z" />
<glyph unicode="&#x153;" horiz-adv-x="2205" d="M66 551q0 163 78 293t215.5 202t308.5 72q140 0 253 -49t187 -139q78 89 192.5 138.5t253.5 49.5q120 0 226 -38t186 -108t126.5 -177t47.5 -236l-840 -158q37 -77 116 -119t186 -42q89 0 157 25.5t129 80.5l174 -184q-161 -178 -469 -178q-156 0 -279 50t-204 142 q-74 -92 -187.5 -142t-254.5 -50q-171 0 -308.5 72t-215.5 202t-78 293zM389 551q0 -139 80 -222t203 -83t201.5 82.5t78.5 222.5t-78.5 222.5t-201.5 82.5t-203 -83t-80 -222zM1270 584l553 104q-25 86 -97 137.5t-172 51.5q-128 0 -206 -79.5t-78 -209.5v-4z" />
<glyph unicode="&#x178;" horiz-adv-x="1607" d="M147 944v490h332v-469q0 -167 80 -253.5t225 -86.5q154 0 244 89.5t90 272.5v447h332v-985q0 -323 -180 -496.5t-498 -173.5q-184 0 -334.5 50.5t-257.5 141.5l129 246q196 -158 455 -158q179 0 266.5 91t87.5 282v88q-142 -176 -405 -176q-271 0 -418.5 155t-147.5 445z M449 1702q0 62 41 101.5t102 39.5t101 -39.5t40 -101.5t-40 -101.5t-101 -39.5t-102 39.5t-41 101.5zM864 1702q0 62 40.5 101.5t101.5 39.5t102 -39.5t41 -101.5t-41 -101.5t-102 -39.5t-101.5 39.5t-40.5 101.5z" />
<glyph unicode="&#x2c6;" horiz-adv-x="1228" d="M203 1243l270 295h283l270 -295h-233l-179 156l-178 -156h-233z" />
<glyph unicode="&#x2dc;" horiz-adv-x="1228" d="M221 1251q3 137 68 218t172 81q48 0 94 -20.5t75 -45t61.5 -45t56.5 -20.5q41 0 68 30t30 81h162q-3 -133 -68 -213t-172 -80q-48 0 -94 20t-75 44.5t-61.5 44.5t-56.5 20q-42 0 -68.5 -30t-29.5 -85h-162z" />
<glyph unicode="&#x2000;" horiz-adv-x="1020" />
<glyph unicode="&#x2001;" horiz-adv-x="2040" />
<glyph unicode="&#x2002;" horiz-adv-x="1020" />
<glyph unicode="&#x2003;" horiz-adv-x="2040" />
<glyph unicode="&#x2004;" horiz-adv-x="680" />
<glyph unicode="&#x2005;" horiz-adv-x="510" />
<glyph unicode="&#x2006;" horiz-adv-x="340" />
<glyph unicode="&#x2007;" horiz-adv-x="340" />
<glyph unicode="&#x2008;" horiz-adv-x="255" />
<glyph unicode="&#x2009;" horiz-adv-x="408" />
<glyph unicode="&#x200a;" horiz-adv-x="113" />
<glyph unicode="&#x2010;" horiz-adv-x="790" d="M106 449v256h580v-256h-580z" />
<glyph unicode="&#x2011;" horiz-adv-x="790" d="M106 449v256h580v-256h-580z" />
<glyph unicode="&#x2012;" horiz-adv-x="790" d="M106 449v256h580v-256h-580z" />
<glyph unicode="&#x2013;" horiz-adv-x="1024" d="M0 477v199h1024v-199h-1024z" />
<glyph unicode="&#x2014;" horiz-adv-x="2048" d="M0 477v199h2048v-199h-2048z" />
<glyph unicode="&#x2018;" horiz-adv-x="536" d="M70 1020q0 42 10.5 83t44.5 122l119 295h202l-90 -326q52 -22 80.5 -67t28.5 -107q0 -88 -55.5 -142.5t-141.5 -54.5q-87 0 -142.5 55t-55.5 142z" />
<glyph unicode="&#x2019;" horiz-adv-x="536" d="M72 1339q0 88 56 142.5t142 54.5q87 0 142 -55t55 -142q0 -41 -10 -81.5t-43 -122.5l-119 -295h-203l88 323q-51 22 -79.5 67.5t-28.5 108.5z" />
<glyph unicode="&#x201a;" horiz-adv-x="536" d="M72 184q0 88 56 142.5t142 54.5q87 0 142 -55t55 -142q0 -42 -10.5 -82t-44.5 -122l-117 -295h-203l90 325q-52 20 -81 66t-29 108z" />
<glyph unicode="&#x201c;" horiz-adv-x="1019" d="M70 1020q0 42 10.5 83t44.5 122l119 295h202l-90 -326q52 -22 80.5 -67t28.5 -107q0 -88 -55.5 -142.5t-141.5 -54.5q-87 0 -142.5 55t-55.5 142zM553 1020q0 42 10.5 83t44.5 122l119 295h203l-90 -326q108 -46 108 -174q0 -88 -55 -142.5t-141 -54.5q-87 0 -143 55 t-56 142z" />
<glyph unicode="&#x201d;" horiz-adv-x="1019" d="M72 1339q0 88 56 142.5t142 54.5q87 0 142 -55t55 -142q0 -41 -10 -81.5t-43 -122.5l-119 -295h-203l88 323q-51 22 -79.5 67.5t-28.5 108.5zM555 1339q0 88 56.5 142.5t142.5 54.5t141 -55t55 -142q0 -41 -10 -81.5t-43 -122.5l-119 -295h-203l89 323q-51 22 -80 67.5 t-29 108.5z" />
<glyph unicode="&#x201e;" horiz-adv-x="1019" d="M72 184q0 88 56 142.5t142 54.5q87 0 142 -55t55 -142q0 -42 -10.5 -82t-44.5 -122l-117 -295h-203l90 325q-52 20 -81 66t-29 108zM555 184q0 88 56.5 142.5t142.5 54.5t141 -54.5t55 -142.5q0 -42 -10.5 -82t-44.5 -122l-117 -295h-203l91 325q-52 21 -81.5 66.5 t-29.5 107.5z" />
<glyph unicode="&#x2022;" horiz-adv-x="733" d="M111 573q0 111 74.5 184.5t181.5 73.5q106 0 181 -73.5t75 -184.5t-75 -185.5t-181 -74.5q-107 0 -181.5 74.5t-74.5 185.5z" />
<glyph unicode="&#x2026;" horiz-adv-x="1634" d="M70 184q0 88 56.5 142.5t141.5 54.5t142 -54.5t57 -142.5q0 -87 -57.5 -143.5t-141.5 -56.5t-141 56.5t-57 143.5zM616 184q0 88 57 142.5t142 54.5t142 -54.5t57 -142.5q0 -87 -57.5 -143.5t-141.5 -56.5t-141.5 56.5t-57.5 143.5zM1165 184q0 88 57 142.5t142 54.5 t142 -54.5t57 -142.5q0 -87 -57.5 -143.5t-141.5 -56.5t-141.5 56.5t-57.5 143.5z" />
<glyph unicode="&#x202f;" horiz-adv-x="408" />
<glyph unicode="&#x2039;" horiz-adv-x="700" d="M74 551l288 401h287l-280 -401l280 -399h-287z" />
<glyph unicode="&#x203a;" horiz-adv-x="700" d="M51 152l281 399l-281 401h287l289 -401l-289 -399h-287z" />
<glyph unicode="&#x205f;" horiz-adv-x="510" />
<glyph unicode="&#x20ac;" horiz-adv-x="1679" d="M61 489v173h201q-2 18 -2 55t2 55h-201v172h232q71 233 272 373.5t471 140.5q187 0 337.5 -65t252.5 -189l-211 -196q-148 168 -362 168q-135 0 -241.5 -62t-164.5 -170h518v-172h-569q-2 -18 -2 -55t2 -55h569v-173h-518q58 -108 164.5 -169.5t241.5 -61.5 q215 0 362 170l211 -197q-101 -125 -252 -190.5t-338 -65.5q-270 0 -471 140.5t-272 373.5h-232z" />
<glyph unicode="&#x2122;" horiz-adv-x="2142" d="M8 1257v177h809v-177h-291v-673h-229v673h-289zM924 584v850h188l340 -512l332 512h186l4 -850h-215l-2 485l-258 -397h-102l-258 385v-473h-215z" />
<glyph unicode="&#x25fc;" horiz-adv-x="1105" d="M0 0v1106h1106v-1106h-1106z" />
</font>
</defs>
</svg>
